<svg fill="#e993ee" xmlns="http://www.w3.org/2000/svg"  viewBox="0 0 30 30" width="30px" height="30px"><path d="M23,16c-3.866,0-7,3.134-7,7c0,3.866,3.134,7,7,7s7-3.134,7-7C30,19.134,26.866,16,23,16z M26,24h-2v2c0,0.553-0.448,1-1,1s-1-0.447-1-1v-2h-2c-0.552,0-1-0.447-1-1s0.448-1,1-1h2v-2c0-0.553,0.448-1,1-1s1,0.447,1,1v2h2c0.552,0,1,0.447,1,1S26.552,24,26,24z"/><path d="M14,23c0-0.338,0.022-0.671,0.059-1H5v-7l2.289-2.289c0.945-0.945,2.477-0.945,3.422,0l5.01,5.01C17.357,15.47,20.004,14,23,14c1.851,0,3.57,0.56,5,1.518V7c0-1.105-0.895-2-2-2H4C2.895,5,2,5.895,2,7v16c0,1.105,0.895,2,2,2h10.231C14.084,24.356,14,23.688,14,23z M23,8c1.105,0,2,0.895,2,2c0,1.105-0.895,2-2,2s-2-0.895-2-2C21,8.895,21.895,8,23,8z"/></svg>