<svg fill="#dc8dec" xmlns="http://www.w3.org/2000/svg"  viewBox="0 0 50 50" width="50px" height="50px"><path fill="none" stroke="#dc8dec" stroke-linecap="round" stroke-miterlimit="10" stroke-width="2" d="M38 15L25 15 25 2"/><path fill="none" stroke="#dc8dec" stroke-linecap="round" stroke-miterlimit="10" stroke-width="2" d="M21 47L5 47 5 1 25 1 39 15 39 27"/><path fill="none" stroke="#dc8dec" stroke-linecap="round" stroke-linejoin="round" stroke-miterlimit="10" stroke-width="2" d="M47.7 31.7L31.9 47.4 25.9 49 27.6 43 43.3 27.3"/><path d="M48.1 32.6c0 0 .7-.7.7-.7 1.6-1.6 1.6-4.2 0-5.8-1.6-1.6-4.2-1.6-5.8 0 0 0-.7.7-.7.7L48.1 32.6zM27.7 42.9L32.1 47.2 26.3 48.6z"/></svg>